<svg xmlns="http://www.w3.org/2000/svg" width="151.434" height="50.62" viewBox="0 0 151.434 50.62"><defs><style>.a{fill:#a6a6a6;}.b{fill:#fff;}</style></defs><g transform="translate(0 0)"><g transform="translate(0 0)"><path class="a" d="M139.375,0H12.066c-.464,0-.923,0-1.385,0-.387,0-.772.01-1.163.016A16.723,16.723,0,0,0,6.982.242a8.435,8.435,0,0,0-2.406.793A8.147,8.147,0,0,0,2.528,2.527,7.92,7.92,0,0,0,1.037,4.579,8.354,8.354,0,0,0,.246,6.987,16.442,16.442,0,0,0,.019,9.521C.007,9.909.006,10.3,0,10.686V39.937c.006.393.007.774.019,1.167a16.442,16.442,0,0,0,.227,2.533,8.336,8.336,0,0,0,.791,2.41A7.856,7.856,0,0,0,2.528,48.09a7.94,7.94,0,0,0,2.048,1.492,8.48,8.48,0,0,0,2.406.8,17.027,17.027,0,0,0,2.536.224c.391.009.775.014,1.163.014.463,0,.921,0,1.385,0H139.375c.455,0,.917,0,1.372,0,.386,0,.781,0,1.167-.014a16.8,16.8,0,0,0,2.531-.224,8.611,8.611,0,0,0,2.415-.8,7.945,7.945,0,0,0,2.047-1.492,8.093,8.093,0,0,0,1.5-2.043,8.358,8.358,0,0,0,.783-2.41,17.093,17.093,0,0,0,.235-2.533c0-.393,0-.774,0-1.167.01-.46.01-.917.01-1.384V12.068c0-.463,0-.923-.01-1.382,0-.388,0-.777,0-1.165a17.1,17.1,0,0,0-.235-2.534,8.375,8.375,0,0,0-.783-2.409,8.183,8.183,0,0,0-3.542-3.543,8.565,8.565,0,0,0-2.415-.793,16.507,16.507,0,0,0-2.531-.224C141.528.012,141.133,0,140.747,0c-.455,0-.917,0-1.372,0Z" transform="translate(0 0)"/><path d="M10.458,49.324c-.386,0-.762,0-1.145-.014A16.051,16.051,0,0,1,6.947,49.1a7.445,7.445,0,0,1-2.1-.694,6.843,6.843,0,0,1-1.768-1.288A6.739,6.739,0,0,1,1.79,45.353a7.251,7.251,0,0,1-.687-2.1,15.733,15.733,0,0,1-.211-2.375c-.008-.267-.019-1.157-.019-1.157V10.463S.884,9.587.892,9.33A15.678,15.678,0,0,1,1.1,6.958a7.293,7.293,0,0,1,.688-2.105A6.806,6.806,0,0,1,3.074,3.082a7.045,7.045,0,0,1,1.775-1.3A7.368,7.368,0,0,1,6.942,1.1,15.923,15.923,0,0,1,9.316.89L10.459.875H140.55l1.156.016a15.669,15.669,0,0,1,2.353.206,7.514,7.514,0,0,1,2.115.694,7.083,7.083,0,0,1,3.057,3.065,7.3,7.3,0,0,1,.678,2.089,16.47,16.47,0,0,1,.22,2.39c0,.359,0,.744,0,1.127.01.475.01.927.01,1.383V38.355c0,.46,0,.909-.01,1.362,0,.412,0,.789,0,1.178a16.133,16.133,0,0,1-.216,2.348,7.272,7.272,0,0,1-.684,2.115,6.941,6.941,0,0,1-1.286,1.755,6.852,6.852,0,0,1-1.771,1.3,7.417,7.417,0,0,1-2.111.7,15.868,15.868,0,0,1-2.366.207c-.371.009-.759.014-1.136.014l-1.372,0Z" transform="translate(0.21 0.21)"/><g transform="translate(12.369 11.392)"><path class="b" d="M28.326,21.822a6.138,6.138,0,0,1,2.923-5.15A6.283,6.283,0,0,0,26.3,14c-2.083-.219-4.1,1.246-5.164,1.246-1.082,0-2.716-1.225-4.476-1.188a6.593,6.593,0,0,0-5.548,3.384c-2.4,4.153-.61,10.257,1.688,13.615,1.15,1.644,2.493,3.48,4.252,3.415,1.72-.071,2.363-1.1,4.44-1.1,2.057,0,2.66,1.1,4.454,1.056,1.846-.03,3.009-1.651,4.119-3.311a13.6,13.6,0,0,0,1.883-3.836A5.932,5.932,0,0,1,28.326,21.822Z" transform="translate(-9.972 -7.458)"/><path class="b" d="M22.818,13.05A6.044,6.044,0,0,0,24.2,8.72a6.149,6.149,0,0,0-3.979,2.059A5.751,5.751,0,0,0,18.8,14.948,5.084,5.084,0,0,0,22.818,13.05Z" transform="translate(-7.852 -8.72)"/><g transform="translate(33.34 11.35)"><path class="b" d="M44.2,29.318H38.324l-1.41,4.163H34.427l5.561-15.4h2.584l5.561,15.4H45.6ZM38.932,27.4h4.654L41.292,20.64h-.064Z" transform="translate(-34.427 -17.821)"/><path class="b" d="M57.21,27.081c0,3.49-1.868,5.732-4.687,5.732a3.807,3.807,0,0,1-3.533-1.965h-.053v5.562H46.631V21.466h2.231v1.868H48.9a3.984,3.984,0,0,1,3.576-1.985C55.331,21.348,57.21,23.6,57.21,27.081Zm-2.369,0c0-2.274-1.175-3.768-2.968-3.768-1.761,0-2.946,1.526-2.946,3.768,0,2.263,1.185,3.778,2.946,3.778C53.665,30.859,54.84,29.375,54.84,27.081Z" transform="translate(-31.494 -17.036)"/><path class="b" d="M67.175,27.081c0,3.49-1.868,5.732-4.687,5.732a3.807,3.807,0,0,1-3.533-1.965H58.9v5.562H56.6V21.466h2.231v1.868h.042a3.984,3.984,0,0,1,3.576-1.985C65.3,21.348,67.175,23.6,67.175,27.081Zm-2.369,0c0-2.274-1.175-3.768-2.968-3.768-1.761,0-2.946,1.526-2.946,3.768,0,2.263,1.185,3.778,2.946,3.778,1.793,0,2.968-1.484,2.968-3.778Z" transform="translate(-29.098 -17.036)"/><path class="b" d="M72.168,29.239c.171,1.527,1.655,2.53,3.682,2.53,1.943,0,3.341-1,3.341-2.38,0-1.2-.843-1.911-2.839-2.4l-2-.481c-2.828-.683-4.141-2.006-4.141-4.152,0-2.658,2.316-4.483,5.6-4.483,3.255,0,5.486,1.825,5.561,4.483H79.053c-.139-1.537-1.41-2.465-3.267-2.465s-3.128.939-3.128,2.305c0,1.089.812,1.73,2.8,2.22l1.7.417c3.16.747,4.473,2.017,4.473,4.27,0,2.882-2.3,4.687-5.946,4.687-3.416,0-5.722-1.762-5.871-4.548Z" transform="translate(-25.922 -17.871)"/><path class="b" d="M84.111,19.3v2.658h2.136v1.825H84.111v6.191c0,.962.428,1.41,1.366,1.41a7.2,7.2,0,0,0,.758-.053v1.815a6.33,6.33,0,0,1-1.28.107c-2.274,0-3.16-.854-3.16-3.032V23.783H80.163V21.957H81.8V19.3Z" transform="translate(-23.433 -17.528)"/><path class="b" d="M86.065,27.085c0-3.533,2.081-5.754,5.326-5.754s5.327,2.22,5.327,5.754-2.06,5.754-5.327,5.754S86.065,30.628,86.065,27.085Zm8.3,0c0-2.424-1.111-3.854-2.979-3.854s-2.977,1.441-2.977,3.854c0,2.434,1.11,3.853,2.977,3.853s2.979-1.42,2.979-3.853Z" transform="translate(-22.015 -17.039)"/><path class="b" d="M96.186,21.466h2.2v1.911h.053a2.678,2.678,0,0,1,2.7-2.029,3.555,3.555,0,0,1,.79.086V23.59a3.222,3.222,0,0,0-1.036-.139,2.323,2.323,0,0,0-2.4,2.584V32.7H96.186Z" transform="translate(-19.582 -17.036)"/><path class="b" d="M111.347,29.4c-.31,2.039-2.3,3.438-4.836,3.438-3.267,0-5.295-2.189-5.295-5.7s2.039-5.807,5.2-5.807c3.107,0,5.061,2.134,5.061,5.539v.79h-7.932V27.8a2.925,2.925,0,0,0,3.021,3.181,2.541,2.541,0,0,0,2.593-1.58Zm-7.792-3.352h5.614a2.7,2.7,0,0,0-2.755-2.85,2.843,2.843,0,0,0-2.86,2.85Z" transform="translate(-18.372 -17.039)"/></g></g></g><g transform="translate(47.251 10.717)"><path class="b" d="M38.344,8.733a3.274,3.274,0,0,1,3.483,3.678c0,2.364-1.278,3.724-3.483,3.724H35.671v-7.4ZM36.82,15.087h1.4a2.327,2.327,0,0,0,2.441-2.662,2.333,2.333,0,0,0-2.441-2.647h-1.4Z" transform="translate(-35.671 -8.368)"/><path class="b" d="M41.683,13.006a2.646,2.646,0,1,1,5.268,0,2.646,2.646,0,1,1-5.268,0Zm4.134,0c0-1.211-.544-1.919-1.5-1.919s-1.5.708-1.5,1.919.539,1.923,1.5,1.923,1.5-.707,1.5-1.923Z" transform="translate(-34.229 -8.035)"/><path class="b" d="M52.776,15.78H51.633l-1.154-4.114h-.087l-1.15,4.114H48.109l-1.54-5.585h1.118l1,4.262h.082l1.148-4.262h1.057l1.148,4.262h.087l1-4.262h1.1Z" transform="translate(-33.051 -8.014)"/><path class="b" d="M53.854,10.217h1.061V11.1H55a1.672,1.672,0,0,1,1.667-1A1.817,1.817,0,0,1,58.6,12.186V15.8h-1.1V12.463c0-.9-.39-1.344-1.205-1.344a1.281,1.281,0,0,0-1.334,1.415V15.8h-1.1Z" transform="translate(-31.3 -8.036)"/><path class="b" d="M59.094,8.437h1.1V16.2h-1.1Z" transform="translate(-30.041 -8.437)"/><path class="b" d="M61.22,13.006a2.646,2.646,0,1,1,5.269,0,2.647,2.647,0,1,1-5.269,0Zm4.134,0c0-1.211-.544-1.919-1.5-1.919s-1.5.708-1.5,1.919.539,1.923,1.5,1.923,1.5-.707,1.5-1.923Z" transform="translate(-29.532 -8.035)"/><path class="b" d="M66.4,14.222c0-1.005.749-1.585,2.077-1.667l1.513-.087v-.482c0-.59-.39-.923-1.143-.923-.615,0-1.042.226-1.164.621H66.617c.113-.959,1.015-1.575,2.282-1.575,1.4,0,2.19.7,2.19,1.877V15.8H70.028v-.785H69.94a1.879,1.879,0,0,1-1.678.877A1.687,1.687,0,0,1,66.4,14.222Zm3.59-.477v-.467l-1.364.087c-.769.051-1.118.313-1.118.806s.436.8,1.036.8a1.317,1.317,0,0,0,1.446-1.221Z" transform="translate(-28.284 -8.035)"/><path class="b" d="M71.348,13.408c0-1.765.907-2.883,2.318-2.883a1.841,1.841,0,0,1,1.713.98h.082V8.437h1.1V16.2H75.508V15.32h-.087a1.939,1.939,0,0,1-1.754.974C72.246,16.295,71.348,15.177,71.348,13.408Zm1.139,0c0,1.185.558,1.9,1.492,1.9s1.5-.723,1.5-1.893-.58-1.9-1.5-1.9-1.492.718-1.492,1.893Z" transform="translate(-27.095 -8.437)"/><path class="b" d="M79.232,13.006a2.646,2.646,0,1,1,5.268,0,2.646,2.646,0,1,1-5.268,0Zm4.134,0c0-1.211-.544-1.919-1.5-1.919s-1.5.708-1.5,1.919.539,1.923,1.5,1.923S83.367,14.221,83.367,13.006Z" transform="translate(-25.203 -8.035)"/><path class="b" d="M84.669,10.217h1.061V11.1h.082a1.672,1.672,0,0,1,1.667-1,1.817,1.817,0,0,1,1.933,2.077V15.8h-1.1V12.463c0-.9-.39-1.344-1.205-1.344a1.281,1.281,0,0,0-1.334,1.415V15.8h-1.1Z" transform="translate(-23.893 -8.036)"/><path class="b" d="M93.9,9.074V10.49h1.21v.928H93.9V14.29c0,.585.241.841.79.841a3.68,3.68,0,0,0,.42-.025v.918a3.616,3.616,0,0,1-.6.056c-1.226,0-1.714-.431-1.714-1.508V11.418h-.887V10.49H92.8V9.074Z" transform="translate(-22.152 -8.284)"/><path class="b" d="M95.7,8.437H96.8v3.078h.087a1.719,1.719,0,0,1,1.7-1,1.84,1.84,0,0,1,1.924,2.082V16.2h-1.1V12.869c0-.892-.416-1.344-1.194-1.344a1.3,1.3,0,0,0-1.406,1.416V16.2H95.7Z" transform="translate(-21.24 -8.437)"/><path class="b" d="M105.735,14.293a2.267,2.267,0,0,1-2.42,1.616,2.537,2.537,0,0,1-2.58-2.883,2.576,2.576,0,0,1,2.575-2.918c1.554,0,2.492,1.062,2.492,2.816v.385h-3.944v.062a1.476,1.476,0,0,0,1.487,1.6,1.339,1.339,0,0,0,1.329-.677Zm-3.877-1.8h2.821a1.348,1.348,0,0,0-1.375-1.447,1.428,1.428,0,0,0-1.446,1.447Z" transform="translate(-20.037 -8.035)"/></g></g></svg>