<svg xmlns="http://www.w3.org/2000/svg" xmlns:xlink="http://www.w3.org/1999/xlink" width="171.53" height="50.615" viewBox="0 0 171.53 50.615"><defs><style>.a,.b,.d,.e,.f,.g,.h,.i,.j,.k{fill-rule:evenodd;}.b{fill:#a6a6a6;}.c,.d,.k{fill:#fff;}.e{fill:url(#a);}.f{fill:url(#b);}.g{fill:url(#c);}.h{fill:url(#d);}.i{opacity:0.2;}.j{opacity:0.12;}.k{opacity:0.25;}</style><linearGradient id="a" x1="2.472" y1="1.035" x2="2.361" y2="1.005" gradientUnits="objectBoundingBox"><stop offset="0" stop-color="#00a0ff"/><stop offset="0.007" stop-color="#00a1ff"/><stop offset="0.26" stop-color="#00beff"/><stop offset="0.512" stop-color="#00d2ff"/><stop offset="0.76" stop-color="#00dfff"/><stop offset="1" stop-color="#00e3ff"/></linearGradient><linearGradient id="b" x1="1.95" y1="1.879" x2="1.69" y2="1.879" gradientUnits="objectBoundingBox"><stop offset="0" stop-color="#ffe000"/><stop offset="0.409" stop-color="#ffbd00"/><stop offset="0.775" stop-color="orange"/><stop offset="1" stop-color="#ff9c00"/></linearGradient><linearGradient id="c" x1="1.926" y1="0.946" x2="1.835" y2="0.793" gradientUnits="objectBoundingBox"><stop offset="0" stop-color="#ff3a44"/><stop offset="1" stop-color="#c31162"/></linearGradient><linearGradient id="d" x1="1.856" y1="2.093" x2="1.897" y2="2.025" gradientUnits="objectBoundingBox"><stop offset="0" stop-color="#32a071"/><stop offset="0.068" stop-color="#2da771"/><stop offset="0.476" stop-color="#15cf74"/><stop offset="0.801" stop-color="#06e775"/><stop offset="1" stop-color="#00f076"/></linearGradient></defs><path class="a" d="M165.175,50.615H6.355A6.359,6.359,0,0,1,0,44.288V6.327A6.351,6.351,0,0,1,6.355,0H165.175a6.353,6.353,0,0,1,6.355,6.327V44.288A6.361,6.361,0,0,1,165.175,50.615Z"/><path class="b" d="M165.175,1.013a5.343,5.343,0,0,1,5.342,5.314V44.288a5.332,5.332,0,0,1-5.342,5.314H6.355a5.343,5.343,0,0,1-5.342-5.314V6.327A5.332,5.332,0,0,1,6.355,1.013Zm0-1.013H6.355A6.359,6.359,0,0,0,0,6.327V44.288a6.351,6.351,0,0,0,6.355,6.327H165.175a6.353,6.353,0,0,0,6.355-6.327V6.327A6.361,6.361,0,0,0,165.175,0Z"/><path class="c" d="M1692.46,279.482a3.851,3.851,0,0,1-2.875-1.19,4.051,4.051,0,0,1-1.161-2.9,3.962,3.962,0,0,1,1.161-2.9,3.839,3.839,0,0,1,2.871-1.19,3.89,3.89,0,0,1,2.875,1.19,4.2,4.2,0,0,1,0,5.8A3.818,3.818,0,0,1,1692.46,279.482Zm-34.083,0a3.993,3.993,0,0,1-2.887-1.174,4.09,4.09,0,0,1,2.887-7.005,4.024,4.024,0,0,1,1.612.334,3.261,3.261,0,0,1,1.228.877l.076.092-.855.839-.088-.1a2.43,2.43,0,0,0-1.985-.855,2.743,2.743,0,0,0-1.979.808,3.067,3.067,0,0,0,0,4.2,2.893,2.893,0,0,0,4.011,0,2.185,2.185,0,0,0,.581-1.316h-2.742V275h3.919l.016.107a4.342,4.342,0,0,1,.057.593,3.553,3.553,0,0,1-.978,2.619A3.818,3.818,0,0,1,1658.377,279.482Zm45.317-.167h-1.208l-3.7-5.923.032,1.067v4.853h-1.208V271.47h1.379l.038.06,3.481,5.579-.032-1.063V271.47h1.221Zm-20.315,0h-1.224v-6.665h-2.124v-1.18h5.469v1.18h-2.124v6.665Zm-4.345,0h-1.221V271.47h1.221Zm-6.863,0h-1.221v-6.665h-2.124v-1.18h5.469v1.18h-2.124Zm-4.118-.013h-4.683V271.47h4.683v1.18h-3.458V274.8h3.121v1.168h-3.121v2.152h3.458Zm22.43-1.821a2.7,2.7,0,0,0,1.979.82,2.633,2.633,0,0,0,1.978-.82,3.109,3.109,0,0,0,0-4.178,2.707,2.707,0,0,0-1.979-.82,2.622,2.622,0,0,0-1.975.82,3.114,3.114,0,0,0-.006,4.178Z" transform="translate(-1602.098 -262.739)"/><path class="d" d="M1680.95,688.977a5.383,5.383,0,1,0,5.4,5.383A5.3,5.3,0,0,0,1680.95,688.977Zm0,8.634a3.271,3.271,0,1,1,3.036-3.263A3.115,3.115,0,0,1,1680.95,697.61Zm-11.78-8.634a5.383,5.383,0,1,0,5.4,5.383A5.3,5.3,0,0,0,1669.171,688.977Zm0,8.634a3.271,3.271,0,1,1,3.036-3.263A3.115,3.115,0,0,1,1669.171,697.61Zm-14.017-6.99V692.9h5.469a4.8,4.8,0,0,1-1.237,2.868,5.58,5.58,0,0,1-4.219,1.672,6.075,6.075,0,0,1,0-12.149,5.838,5.838,0,0,1,4.118,1.631l1.616-1.616a7.945,7.945,0,0,0-5.721-2.307,8.354,8.354,0,1,0,0,16.706,7.646,7.646,0,0,0,5.835-2.348,7.56,7.56,0,0,0,1.982-5.342,7.045,7.045,0,0,0-.126-1.42h-7.719S1655.154,690.621,1655.154,690.621Zm57.333,1.773a5,5,0,0,0-4.61-3.43,5.114,5.114,0,0,0-5.074,5.383,5.262,5.262,0,0,0,5.343,5.383,5.343,5.343,0,0,0,4.484-2.389l-1.827-1.224a3.062,3.062,0,0,1-2.645,1.49,2.75,2.75,0,0,1-2.616-1.631l7.2-2.982S1712.487,692.394,1712.487,692.394Zm-7.34,1.8a2.955,2.955,0,0,1,2.812-3.137,2.075,2.075,0,0,1,2,1.139Zm-5.847,5.216h2.364V683.593H1699.3Zm-3.881-9.236h-.085a3.728,3.728,0,0,0-2.84-1.209,5.383,5.383,0,0,0,0,10.757,3.718,3.718,0,0,0,2.84-1.224h.085v.773c0,2.054-1.1,3.162-2.868,3.162a2.985,2.985,0,0,1-2.714-1.912l-2.054.858a5.138,5.138,0,0,0,4.765,3.178c2.771,0,5.118-1.631,5.118-5.611v-9.659h-2.234v.887Zm-2.714,7.438a3.273,3.273,0,0,1,0-6.523,3.026,3.026,0,0,1,2.868,3.276A2.989,2.989,0,0,1,1692.705,697.61Zm30.849-14.017H1717.9v15.816h2.364V693.42h3.291a4.921,4.921,0,1,0,0-9.826Zm.07,7.618h-3.361v-5.428h3.361a2.714,2.714,0,1,1,0,5.428Zm14.594-2.263a4.451,4.451,0,0,0-4.219,2.417l2.1.871a2.247,2.247,0,0,1,2.152-1.167,2.283,2.283,0,0,1,2.49,2.038v.167a5.3,5.3,0,0,0-2.461-.606c-2.262,0-4.557,1.237-4.557,3.556a3.656,3.656,0,0,0,3.922,3.487,3.327,3.327,0,0,0,3.007-1.546h.085v1.224h2.278v-6.059C1743.011,690.51,1740.916,688.948,1738.218,688.948Zm-.3,8.662c-.773,0-1.855-.379-1.855-1.351,0-1.224,1.35-1.688,2.5-1.688a4.1,4.1,0,0,1,2.152.533A2.845,2.845,0,0,1,1737.921,697.61Zm13.4-8.324-2.714,6.86h-.085l-2.812-6.86h-2.543l4.219,9.59-2.4,5.33h2.461l6.491-14.92Zm-21.275,10.123h2.364V683.593h-2.364Z" transform="translate(-1594.737 -661.448)"/><path class="e" d="M400.677,299.485a2.563,2.563,0,0,0-.577,1.786v27.98a2.44,2.44,0,0,0,.59,1.77l.1.085,15.677-15.677v-.35L400.775,299.4Z" transform="translate(-387.475 -289.952)"/><path class="f" d="M923.529,641.324l-5.229-5.229v-.366l5.229-5.229.114.069,6.185,3.515c1.77,1,1.77,2.644,0,3.654l-6.185,3.515Z" transform="translate(-889.322 -610.604)"/><path class="g" d="M439.517,807.342,434.175,802,418.4,817.775a2.071,2.071,0,0,0,2.629.085l18.488-10.517" transform="translate(-405.197 -776.692)"/><path class="h" d="M439.517,297.406l-18.488-10.5a2.05,2.05,0,0,0-2.629.085l15.775,15.759Z" transform="translate(-405.197 -277.44)"/><path class="i" d="M439.791,967.7l-18.362,10.432a2.084,2.084,0,0,1-2.531.013l-.1.1.1.085a2.088,2.088,0,0,0,2.531-.013l18.488-10.5Z" transform="translate(-405.584 -937.164)"/><path class="j" d="M1089.814,803.644l-6.314,3.585.114.114,6.185-3.515a2.216,2.216,0,0,0,1.322-1.827A2.276,2.276,0,0,1,1089.814,803.644Z" transform="translate(-1049.309 -776.692)"/><path class="k" d="M403.306,286.918l24.673,14.017a2.325,2.325,0,0,1,1.322,1.644,2.216,2.216,0,0,0-1.322-1.827l-24.673-14.017c-1.77-1.013-3.206-.167-3.206,1.855v.183C400.1,286.747,401.536,285.917,403.306,286.918Z" transform="translate(-387.475 -277.271)"/></svg>