<?xml version="1.0" encoding="UTF-8"?>
<svg width="120px" height="35px" viewBox="0 0 120 35" version="1.1" xmlns="http://www.w3.org/2000/svg" xmlns:xlink="http://www.w3.org/1999/xlink">
    <!-- Generator: Sketch 51.3 (57544) - http://www.bohemiancoding.com/sketch -->
    <title>Apple Store Copy</title>
    <desc>Created with Sketch.</desc>
    <defs></defs>
    <g id="Inner-Pages" stroke="none" stroke-width="1" fill="none" fill-rule="evenodd">
        <g id="About-1" transform="translate(-253.000000, -1704.000000)" fill-rule="nonzero">
            <g id="Group-2" transform="translate(0.000000, 1623.000000)">
                <g id="Group-6">
                    <g id="Group-4">
                        <g id="Group-3" transform="translate(123.000000, 40.000000)">
                            <g id="Apple-Store-Copy" transform="translate(130.000000, 41.000000)">
                                <path d="M120,30.6300991 C120,31.5357556 119.635819,32.4042666 118.987672,33.0443281 C118.339525,33.6843896 117.460581,34.0434971 116.544441,34.0425513 L3.46006519,34.0425513 C1.55146616,34.0445208 0.00248735657,32.5168571 0,30.6300991 L0,3.41690704 C0.00248604073,1.5294288 1.55073658,0.000489931254 3.46006519,0 L116.54354,0 C117.460167,-3.08219582e-08 118.339239,0.360022931 118.987308,1.00084293 C119.635377,1.64166292 119.999338,2.51076889 119.999099,3.41690704 L120,30.6300991 Z" id="Shape" fill="#FFFFFF"></path>
                                <path d="M120,30.6300991 C120,31.5357556 119.635819,32.4042666 118.987672,33.0443281 C118.339525,33.6843896 117.460581,34.0434971 116.544441,34.0425513 L3.46006519,34.0425513 C1.55146616,34.0445208 0.00248735657,32.5168571 0,30.6300991 L0,3.41690704 C0.00248604073,1.5294288 1.55073658,0.000489931254 3.46006519,0 L116.54354,0 C117.460167,-3.08219582e-08 118.339239,0.360022931 118.987308,1.00084293 C119.635377,1.64166292 119.999338,2.51076889 119.999099,3.41690704 L120,30.6300991 Z" id="Shape" fill="#000000"></path>
                                <path d="M26.7021624,16.9038269 C26.6760024,14.0716184 29.0827191,12.6937397 29.1927714,12.629591 C27.8297471,10.6937066 25.7171044,10.4292031 24.9747027,10.4081131 C23.2003354,10.226212 21.4791902,11.4424009 20.5753183,11.4424009 C19.6534051,11.4424009 18.2615145,10.4256881 16.7613759,10.4555656 C14.8309509,10.4845643 13.0250113,11.5733345 12.034541,13.2640479 C9.99045546,16.7113809 11.5149499,21.7773698 13.473339,24.5638834 C14.4529846,25.9294596 15.5977085,27.4523319 17.096043,27.3987282 C18.5619031,27.3407307 19.1094582,26.4892228 20.8784131,26.4892228 C22.6311307,26.4892228 23.1453093,27.3987282 24.673412,27.3644569 C26.2466182,27.3407307 27.2370885,25.9936083 28.1824555,24.6166083 C29.3145505,23.0533136 29.7691927,21.5119875 29.787234,21.4329001 C29.7511513,21.4205976 26.7328327,20.2975562 26.7021624,16.9038269 Z M23.8155456,8.57504237 C24.6039528,7.61456954 25.1433893,6.30786954 24.9936461,4.98183705 C23.8525304,5.03104701 22.4254592,5.75074257 21.6036755,6.69012542 C20.8766089,7.51790713 20.2271202,8.87469584 20.3949048,10.1506396 C21.676743,10.243787 22.9928598,9.52057647 23.8155456,8.57504237 Z" id="Shape" fill="#FFFFFF"></path>
                                <g id="Group" transform="translate(36.595745, 5.957447)" fill="#FFFFFF">
                                    <g id="Group-5">
                                        <path d="M8.81090306,19.6112102 L7.1043354,19.6112102 L6.16951806,16.627886 L2.92020121,16.627886 L2.02972007,19.6112102 L0.368240057,19.6112102 L3.58824993,9.4546285 L5.57661543,9.4546285 L8.81090306,19.6112102 Z M5.88772023,15.3762484 L5.04232674,12.7241503 C4.95290289,12.4532165 4.78457566,11.8151866 4.53809649,10.8108237 L4.50803805,10.8108237 C4.40884522,11.2427913 4.25028697,11.8808213 4.03311477,12.7241503 L3.20199904,15.3762484 L5.88772023,15.3762484 Z M17.0754698,15.85935 C17.0754698,17.1048821 16.7425727,18.089402 16.0760269,18.8121464 C15.4793669,19.4555187 14.737675,19.7768232 13.8532056,19.7768232 C12.8980988,19.7768232 12.2112635,19.4310965 11.7942028,18.7381166 L11.7942028,22.5807969 L10.1920882,22.5807969 L10.1920882,14.6947164 C10.1920882,13.9124429 10.1717987,13.1103263 10.1327227,12.2876035 L11.5417119,12.2876035 L11.6311357,13.4484211 L11.6611942,13.4484211 C12.1954829,12.5738011 13.0063092,12.1364911 14.0944245,12.1364911 C14.9450782,12.1364911 15.6552088,12.4776387 16.2233132,13.1606971 C16.7906662,13.8452818 17.0754698,14.744324 17.0754698,15.85935 Z M15.4432968,15.9188791 C15.4432968,15.2060562 15.28549,14.618397 14.9683735,14.1551385 C14.6219501,13.6735632 14.1567958,13.432394 13.5736621,13.432394 C13.1783937,13.432394 12.8191954,13.5667161 12.4983216,13.8315443 C12.1766963,14.0986621 11.9662873,14.4474417 11.8678459,14.8794093 C11.8238997,15.0409557 11.7989279,15.2072157 11.7934513,15.374722 L11.7934513,16.5965951 C11.7934513,17.1285411 11.9542639,17.5780622 12.2758892,17.9459215 C12.5975144,18.3122545 13.0153267,18.4961842 13.5293259,18.4961842 C14.132749,18.4961842 14.6024121,18.258831 14.9383151,17.7879405 C15.2749696,17.3155236 15.4432968,16.6927575 15.4432968,15.9188791 Z M25.3693436,15.85935 C25.3693436,17.1048821 25.0364464,18.089402 24.3699006,18.8121464 C23.7724892,19.4555187 23.0315488,19.7768232 22.1463279,19.7768232 C21.1912211,19.7768232 20.5043858,19.4310965 20.087325,18.7381166 L20.087325,22.5807969 L18.4852104,22.5807969 L18.4852104,14.6947164 C18.4852104,13.9124429 18.464921,13.1103263 18.425845,12.2876035 L19.8348342,12.2876035 L19.924258,13.4484211 L19.9543165,13.4484211 C20.4878537,12.5738011 21.29868,12.1364911 22.3875468,12.1364911 C23.2374491,12.1364911 23.9475796,12.4776387 24.5171869,13.1606971 C25.0837884,13.8452818 25.3693436,14.744324 25.3693436,15.85935 Z M23.7364191,15.9188791 C23.7364191,15.2060562 23.5778608,14.618397 23.2607443,14.1551385 C22.9143209,13.6735632 22.4506695,13.432394 21.8675359,13.432394 C21.4722674,13.432394 21.1130691,13.5667161 20.7906924,13.8315443 C20.4690672,14.0986621 20.2594096,14.4474417 20.1609682,14.8794093 C20.1121233,15.0808924 20.0858221,15.2449791 20.0858221,15.374722 L20.0858221,16.5965951 C20.0858221,17.1285411 20.2473862,17.5780622 20.5675085,17.9459215 C20.8891338,18.3114913 21.3069461,18.4961842 21.8224482,18.4961842 C22.4266228,18.4961842 22.8962858,18.258831 23.2314374,17.7879405 C23.5680918,17.3155236 23.7364191,16.6927575 23.7364191,15.9188791 Z M34.6423709,16.7622081 C34.6423709,17.6269066 34.3447923,18.329808 33.7533926,18.8724387 C33.1026275,19.464677 32.1941113,19.7615593 31.0293469,19.7615593 C29.953255,19.7615593 29.0905779,19.5509179 28.4398127,19.1288718 L28.810283,17.7726766 C29.5128989,18.1954859 30.2846492,18.4061273 31.1247825,18.4061273 C31.728957,18.4061273 32.1986201,18.2672261 32.5337716,17.9917132 C32.8696746,17.7154371 33.0395048,17.3460513 33.0395048,16.8850823 C33.0395048,16.4721945 32.8989816,16.1264678 32.6231955,15.8448493 C32.3459064,15.563994 31.8875153,15.3022186 31.2435133,15.0618126 C29.4926094,14.3985973 28.616406,13.4285781 28.616406,12.1525182 C28.616406,11.3191107 28.9260079,10.6368155 29.5437088,10.1033431 C30.1614096,9.57063394 30.980502,9.30427934 31.9994829,9.30427934 C32.9095021,9.30427934 33.6677261,9.46531321 34.2696463,9.78661776 L33.8676147,11.1130484 C33.3010132,10.8016654 32.66152,10.6459739 31.9461292,10.6459739 C31.3810306,10.6459739 30.9376687,10.7871647 30.6205522,11.06802 C30.3537836,11.3191107 30.2185206,11.6251514 30.2185206,11.9884316 C30.2185206,12.3891083 30.3725701,12.7218607 30.6791662,12.982873 C30.9451833,13.223279 31.430627,13.4850544 32.1324915,13.7659097 C32.9936657,14.1185052 33.6263957,14.5291034 34.0314332,15.0007571 C34.4394764,15.4724108 34.6423709,16.0608331 34.6423709,16.7622081 Z M39.9529449,13.5087134 L38.1870118,13.5087134 L38.1870118,17.0644328 C38.1870118,17.9688174 38.4981166,18.4198648 39.1218292,18.4198648 C39.4081358,18.4198648 39.6455974,18.3954426 39.8334626,18.3443087 L39.8777988,19.5799192 C39.5621852,19.6997407 39.1466274,19.760033 38.6318767,19.760033 C37.9991466,19.760033 37.5046854,19.5638922 37.1477414,19.1716106 C36.7923004,18.7793291 36.6134527,18.1222193 36.6134527,17.1972285 L36.6134527,13.5056606 L35.5614075,13.5056606 L35.5614075,12.2845507 L36.6134527,12.2845507 L36.6134527,10.9436194 L38.1870118,10.461281 L38.1870118,12.2845507 L39.9529449,12.2845507 L39.9529449,13.5087134 Z M47.904904,15.8891145 C47.904904,17.0148252 47.5877875,17.9390528 46.9550574,18.6617972 C46.2930204,19.4059111 45.4123082,19.7768232 44.3144239,19.7768232 C43.254864,19.7768232 42.4124764,19.4204118 41.7842551,18.708352 C41.1560338,17.9947659 40.8419231,17.0957238 40.8419231,16.0112255 C40.8419231,14.8763565 41.1665542,13.9467866 41.813562,13.2240422 C42.4620728,12.5005345 43.3352703,12.1387807 44.4331547,12.1387807 C45.4912116,12.1387807 46.3411139,12.4959554 46.9843644,13.2087783 C47.5990594,13.9002318 47.904904,14.7931684 47.904904,15.8891145 Z M46.2441754,15.926511 C46.2441754,15.2556638 46.1013978,14.6802157 45.8150912,14.1986405 C45.4791882,13.6170869 44.9982533,13.3263101 44.3752922,13.3263101 C43.7335446,13.3263101 43.2413377,13.6170869 42.9061862,14.1986405 C42.6191281,14.6802157 42.4763505,15.2655853 42.4763505,15.9570388 C42.4763505,16.6286492 42.6191281,17.2056237 42.9061862,17.6856725 C43.2526096,18.2672261 43.735799,18.5580029 44.3617659,18.5580029 C44.9742065,18.5580029 45.45439,18.2611205 45.8015649,17.6711718 C46.0961376,17.1781487 46.2441754,16.5988847 46.2441754,15.926511 Z M53.1147822,13.7185917 C52.9481507,13.6880388 52.7791249,13.672967 52.6098005,13.6735632 C52.0462049,13.6735632 51.6103576,13.8887839 51.3037615,14.3222779 C51.0377444,14.7038747 50.9039843,15.1862131 50.9039843,15.7685299 L50.9039843,19.6112102 L49.3018697,19.6112102 L49.3018697,14.5939748 C49.3032985,13.8251818 49.2877644,13.0564528 49.2552792,12.2883667 L50.650742,12.2883667 L50.709356,13.6895903 L50.7536922,13.6895903 C50.9235223,13.2080151 51.1895395,12.8195495 51.5547495,12.5287727 C51.8890394,12.2746885 52.2952121,12.1370945 52.7127507,12.1364911 C52.8607885,12.1364911 52.9945485,12.1471759 53.1132793,12.1662557 L53.1147822,13.7185917 Z M60.2799617,15.6029169 C60.2840243,15.8502677 60.264394,16.0974336 60.2213478,16.3409252 L55.415004,16.3409252 C55.4330391,17.0644328 55.6659919,17.6185115 56.1123597,18.0001083 C56.5173971,18.3404927 57.0411653,18.5114481 57.6844159,18.5114481 C58.3960493,18.5114481 59.0453115,18.396969 59.6291966,18.1657213 L59.8801846,19.2944848 C59.1978581,19.5967095 58.392292,19.7470587 57.4627349,19.7470587 C56.3445611,19.7470587 55.4668548,19.4127798 54.8281131,18.7457485 C54.1908742,18.0779541 53.8715033,17.1804383 53.8715033,16.056254 C53.8715033,14.9526759 54.1683304,14.0330275 54.762736,13.2995983 C55.3849456,12.5165616 56.2258303,12.1250432 57.2838872,12.1250432 C58.3231576,12.1250432 59.1099372,12.5165616 59.6442258,13.2995983 C60.0672983,13.9200748 60.2799617,14.6893741 60.2799617,15.6029169 Z M58.7522418,15.1808708 C58.7635137,14.6977692 58.6583092,14.2818286 58.441137,13.9299963 C58.1638479,13.4766593 57.7370181,13.2507539 57.1651564,13.2507539 C56.6413882,13.2507539 56.2145584,13.4713169 55.8899273,13.9139693 C55.6231587,14.2658016 55.4646004,14.6886109 55.4157555,15.1793444 L58.7522418,15.1808708 Z" id="Shape"></path>
                                        <g id="Group" transform="translate(0.752883, 0.255746)">
                                            <path d="M1.64411688,5.81917475 C1.20315745,5.81917475 0.821686637,5.79664691 0.5041661,5.75858262 L0.5041661,0.760508888 C0.948255077,0.688843259 1.39702364,0.653519918 1.84637821,0.654861075 C3.66449932,0.654861075 4.50180172,1.58937813 4.50180172,3.11272637 C4.50180172,4.86989808 3.51280333,5.81917475 1.64411688,5.81917475 Z M1.91032848,1.29573935 C1.6649379,1.29573935 1.4559841,1.31127579 1.28272348,1.34856326 L1.28272348,5.14800041 C1.37641807,5.16353685 1.55637116,5.17052825 1.80919782,5.17052825 C3.00045754,5.17052825 3.67862787,4.46206645 3.67862787,3.13525421 C3.67862787,1.95215407 3.06515142,1.29573935 1.91032848,1.29573935 Z M7.11112155,5.85723904 C6.08642998,5.85723904 5.4223882,5.05788904 5.4223882,3.97266849 C5.4223882,2.84161544 6.10055853,2.03527404 7.16912296,2.03527404 C8.17894237,2.03527404 8.85785631,2.79655975 8.85785631,3.91285319 C8.85785631,5.05788904 8.15812135,5.85723904 7.11112155,5.85723904 Z M7.14086586,2.63031981 C6.57795474,2.63031981 6.21730495,3.1803099 6.21730495,3.94936383 C6.21730495,4.70365814 6.58539082,5.25364822 7.13342978,5.25364822 C7.68146874,5.25364822 8.04955461,4.66559385 8.04955461,3.93382738 C8.04955461,3.18807812 7.68890482,2.63031981 7.14086586,2.63031981 Z M14.7011265,2.11062579 L13.604305,5.77411907 L12.8896979,5.77411907 L12.4353535,4.1831873 C12.3223837,3.7940347 12.2283212,3.39916389 12.1535262,3.00008716 L12.138654,3.00008716 C12.0813962,3.39937374 11.9728295,3.79943715 11.8575702,4.1831873 L11.3742252,5.77411907 L10.652182,5.77411907 L9.62005432,2.11062579 L10.4209199,2.11062579 L10.8180065,3.85226106 C10.9117011,4.26708409 10.9905235,4.65860245 11.055961,5.0283698 L11.0708332,5.0283698 C11.128091,4.7199714 11.2217856,4.33466762 11.359353,3.86002928 L11.8575702,2.11140261 L12.4926113,2.11140261 L12.9692639,3.82274182 C13.0845231,4.23756485 13.1782177,4.64461965 13.2510913,5.02914662 L13.2719123,5.02914662 C13.3224776,4.65238788 13.4020437,4.25232447 13.5098668,3.82274182 L13.9359541,2.11140261 L14.7011265,2.11062579 Z M18.738917,5.77411907 L17.959616,5.77411907 L17.959616,3.67048467 C17.959616,3.022615 17.7216615,2.69790334 17.252445,2.69790334 C16.7906645,2.69790334 16.473144,3.11272637 16.473144,3.59513293 L16.473144,5.77411907 L15.693843,5.77411907 L15.693843,3.15778205 C15.693843,2.83384722 15.6864069,2.48660771 15.6648423,2.10984897 L16.3504487,2.10984897 L16.3868855,2.6753755 L16.4084501,2.6753755 C16.6181475,2.28385713 17.0434912,2.03527404 17.5201438,2.03527404 C18.2563155,2.03527404 18.7396606,2.62332841 18.7396606,3.5803733 L18.738917,5.77411907 Z M20.8879436,5.77411907 L20.107899,5.77411907 L20.107899,0.429582651 L20.8879436,0.429582651 L20.8879436,5.77411907 Z M23.729269,5.85723904 C22.7053211,5.85723904 22.0405357,5.05788904 22.0405357,3.97266849 C22.0405357,2.84161544 22.718706,2.03527404 23.7865268,2.03527404 C24.7970899,2.03527404 25.4752602,2.79655975 25.4752602,3.91285319 C25.4760038,5.05788904 24.7755252,5.85723904 23.729269,5.85723904 Z M23.7582697,2.63031981 C23.1953586,2.63031981 22.8347088,3.1803099 22.8347088,3.94936383 C22.8347088,4.70365814 23.2035383,5.25364822 23.7500901,5.25364822 C24.2988726,5.25364822 24.6662149,4.66559385 24.6662149,3.93382738 C24.6669585,3.18807812 24.3070523,2.63031981 23.7582697,2.63031981 Z M28.5478477,5.77411907 L28.4913335,5.35230464 L28.4705125,5.35230464 C28.232558,5.69177592 27.8852931,5.85723904 27.4450773,5.85723904 C26.8167287,5.85723904 26.370564,5.39736032 26.370564,4.77900989 C26.370564,3.8747889 27.1208643,3.40714196 28.4199471,3.40714196 L28.4199471,3.33955844 C28.4199471,2.85715188 28.1753002,2.61556019 27.6919551,2.61556019 C27.3461775,2.61556019 27.0427855,2.70644838 26.7758303,2.88744794 L26.6174418,2.35221748 C26.9416548,2.14092185 27.3461775,2.03527404 27.8213428,2.03527404 C28.7374677,2.03527404 29.1999917,2.54020844 29.1999917,3.55085406 L29.1999917,4.90019414 C29.1999917,5.26996149 29.2156075,5.55660886 29.2505571,5.77489589 L28.5478477,5.77411907 Z M28.4407682,3.94936383 C27.5752087,3.94936383 27.1409417,4.16842767 27.1409417,4.6881217 C27.1409417,5.07264866 27.3647676,5.26063962 27.6755957,5.26063962 C28.0719387,5.26063962 28.4407682,4.94447301 28.4407682,4.51489035 L28.4407682,3.94936383 Z M32.9842119,5.77411907 L32.9477751,5.1860647 L32.9262105,5.1860647 C32.7023846,5.63040697 32.326119,5.85723904 31.8003883,5.85723904 C30.9549062,5.85723904 30.3287884,5.08041688 30.3287884,3.98742811 C30.3287884,2.84161544 30.977958,2.03449722 31.8643385,2.03449722 C32.3335551,2.03449722 32.6659478,2.19996034 32.8533369,2.53244022 L32.8689527,2.53244022 L32.8689527,0.429582651 L33.6489973,0.429582651 L33.6489973,4.78677811 C33.6489973,5.14100901 33.657177,5.47271207 33.677998,5.77411907 L32.9842119,5.77411907 Z M32.8689527,3.61843759 C32.8689527,3.10573497 32.5439961,2.6683841 32.0480097,2.6683841 C31.4702264,2.6683841 31.1170127,3.20361456 31.1170127,3.95713205 C31.1170127,4.69588992 31.4836113,5.20160114 32.0323939,5.20160114 C32.5224315,5.20160114 32.8689527,4.75648204 32.8689527,4.2290198 L32.8689527,3.61843759 Z M38.5947329,5.85723904 C37.5707849,5.85723904 36.9067431,5.05788904 36.9067431,3.97266849 C36.9067431,2.84161544 37.5849135,2.03527404 38.6527343,2.03527404 C39.6632973,2.03527404 40.3414677,2.79655975 40.3414677,3.91285319 C40.3422113,5.05788904 39.6424763,5.85723904 38.5947329,5.85723904 Z M38.6237336,2.63031981 C38.0615661,2.63031981 37.7009163,3.1803099 37.7009163,3.94936383 C37.7009163,4.70365814 38.0690022,5.25364822 38.6162975,5.25364822 C39.1650801,5.25364822 39.5324223,4.66559385 39.5324223,3.93382738 C39.5339096,3.18807812 39.1732598,2.63031981 38.6237336,2.63031981 Z M44.5324413,5.77411907 L43.7523967,5.77411907 L43.7523967,3.67048467 C43.7523967,3.022615 43.5144422,2.69790334 43.0452257,2.69790334 C42.5834452,2.69790334 42.2666683,3.11272637 42.2666683,3.59513293 L42.2666683,5.77411907 L41.4866237,5.77411907 L41.4866237,3.15778205 C41.4866237,2.83384722 41.4791876,2.48660771 41.457623,2.10984897 L42.1432294,2.10984897 L42.1796662,2.6753755 L42.2012308,2.6753755 C42.4101846,2.28385713 42.8362719,2.03449722 43.3121809,2.03449722 C44.0483526,2.03449722 44.5324413,2.62255159 44.5324413,3.57959648 L44.5324413,5.77411907 Z M49.77562,2.721208 L48.9182402,2.721208 L48.9182402,4.50013073 C48.9182402,4.95301805 49.068449,5.1790733 49.371841,5.1790733 C49.5094084,5.1790733 49.6246676,5.16353685 49.7176186,5.14100901 L49.7391832,5.75935944 C49.5882309,5.81995157 49.3859695,5.85024764 49.1346301,5.85024764 C48.52041,5.85024764 48.1530678,5.49601673 48.1530678,4.56849108 L48.1530678,2.721208 L47.6414656,2.721208 L47.6414656,2.11062579 L48.1530678,2.11062579 L48.1530678,1.43945145 L48.9182402,1.19785976 L48.9182402,2.10984897 L49.77562,2.10984897 L49.77562,2.721208 Z M53.9011562,5.77411907 L53.1225988,5.77411907 L53.1225988,3.68602112 C53.1225988,3.03038322 52.8853879,2.69868016 52.4154278,2.69868016 C52.0116487,2.69868016 51.6353832,2.98532754 51.6353832,3.56561368 L51.6353832,5.77411907 L50.8568258,5.77411907 L50.8568258,0.429582651 L51.6353832,0.429582651 L51.6353832,2.63031981 L51.6509989,2.63031981 C51.8963895,2.23103322 52.2518341,2.03449722 52.7054348,2.03449722 C53.4475554,2.03449722 53.9011562,2.63731121 53.9011562,3.59513293 L53.9011562,5.77411907 Z M58.127823,4.13813161 L55.7891764,4.13813161 C55.8040486,4.83183379 56.2435208,5.22335216 56.8941776,5.22335216 C57.2399553,5.22335216 57.5582194,5.16276003 57.8393032,5.05012082 L57.9605113,5.61564735 C57.6288622,5.76635084 57.2384681,5.84170259 56.7841237,5.84170259 C55.6873022,5.84170259 55.0381325,5.11770435 55.0381325,3.99519633 C55.0381325,2.8719115 55.7029179,2.02750582 56.696378,2.02750582 C57.5924254,2.02750582 58.1545929,2.721208 58.1545929,3.76914109 C58.1596321,3.89281042 58.1506463,4.01666828 58.127823,4.13813161 Z M57.4132159,3.55784546 C57.4132159,2.99231893 57.1403118,2.59303235 56.6420946,2.59303235 C56.1944427,2.59303235 55.8404854,3.00008716 55.78992,3.55784546 L57.4132159,3.55784546 Z" id="Shape"></path>
                                        </g>
                                    </g>
                                </g>
                            </g>
                        </g>
                    </g>
                </g>
            </g>
        </g>
    </g>
</svg>