<?xml version="1.0" encoding="UTF-8"?>
<svg width="120px" height="35px" viewBox="0 0 120 35" version="1.1" xmlns="http://www.w3.org/2000/svg" xmlns:xlink="http://www.w3.org/1999/xlink">
    <!-- Generator: Sketch 51.3 (57544) - http://www.bohemiancoding.com/sketch -->
    <title>Google Play Copy</title>
    <desc>Created with Sketch.</desc>
    <defs></defs>
    <g id="Inner-Pages" stroke="none" stroke-width="1" fill="none" fill-rule="evenodd">
        <g id="About-1" transform="translate(-123.000000, -1704.000000)" fill-rule="nonzero">
            <g id="Group-2" transform="translate(0.000000, 1623.000000)">
                <g id="Group-6">
                    <g id="Group-4">
                        <g id="Group-3" transform="translate(123.000000, 40.000000)">
                            <g id="Google-Play-Copy" transform="translate(0.000000, 41.000000)">
                                <path d="M120,30.6300991 C120,31.5357556 119.635819,32.4042666 118.987672,33.0443281 C118.339525,33.6843896 117.460581,34.0434971 116.544441,34.0425513 L3.46006519,34.0425513 C1.55146616,34.0445208 0.00248735657,32.5168571 0,30.6300991 L0,3.41690704 C0.00248604073,1.5294288 1.55073658,0.000489931254 3.46006519,0 L116.54354,0 C117.460167,-3.08219582e-08 118.339239,0.360022931 118.987308,1.00084293 C119.635377,1.64166292 119.999338,2.51076889 119.999099,3.41690704 L120,30.6300991 Z" id="Shape" fill="#000000"></path>
                                <g id="Google-Play" transform="translate(11.914894, 5.957447)" fill="#FFFFFF">
                                    <path d="M32.4825081,3.35683442 C32.4825081,3.98492581 32.318592,4.53450577 31.9088016,4.92706289 C31.4170531,5.39813143 30.8433465,5.6336657 30.1057237,5.6336657 C29.368101,5.6336657 28.7943944,5.39813143 28.3026459,4.92706289 C27.8108974,4.45599435 27.5650232,3.90641438 27.5650232,3.19981157 C27.5650232,2.49320876 27.8108974,1.9436288 28.3026459,1.47256026 C28.7943944,1.00149172 29.368101,0.765957447 30.1057237,0.765957447 C30.4335561,0.765957447 30.7613884,0.84446887 31.0892207,1.00149172 C31.4170531,1.15851456 31.6629273,1.31553741 31.8268435,1.55107168 L31.4170531,1.9436288 C31.0892207,1.55107168 30.6794303,1.39404883 30.1057237,1.39404883 C29.6139753,1.39404883 29.1222268,1.55107168 28.7943944,1.9436288 C28.384604,2.25767449 28.2206878,2.72874303 28.2206878,3.278323 C28.2206878,3.82790296 28.384604,4.2989715 28.7943944,4.61301719 C29.2041848,4.92706289 29.6139753,5.16259716 30.1057237,5.16259716 C30.6794303,5.16259716 31.0892207,5.00557431 31.4990112,4.61301719 C31.7448854,4.37748292 31.9088016,4.06343723 31.9088016,3.67088011 L30.1057237,3.67088011 L30.1057237,3.04278873 L32.4825081,3.04278873 L32.4825081,3.35683442 Z M36.2525799,1.39404883 L34.0397117,1.39404883 L34.0397117,2.88576588 L36.0886638,2.88576588 L36.0886638,3.43534584 L34.0397117,3.43534584 L34.0397117,4.92706289 L36.2525799,4.92706289 L36.2525799,5.55515427 L33.3840471,5.55515427 L33.3840471,0.84446887 L36.2525799,0.84446887 L36.2525799,1.39404883 Z M38.9571967,5.55515427 L38.301532,5.55515427 L38.301532,1.39404883 L36.9082446,1.39404883 L36.9082446,0.84446887 L40.3504841,0.84446887 L40.3504841,1.39404883 L38.9571967,1.39404883 L38.9571967,5.55515427 Z M42.7272685,5.55515427 L42.7272685,0.84446887 L43.3829331,0.84446887 L43.3829331,5.55515427 L42.7272685,5.55515427 Z M46.1695079,5.55515427 L45.5138433,5.55515427 L45.5138433,1.39404883 L44.1205559,1.39404883 L44.1205559,0.84446887 L47.4808373,0.84446887 L47.4808373,1.39404883 L46.0875499,1.39404883 L46.0875499,5.55515427 L46.1695079,5.55515427 Z M53.9555258,4.92706289 C53.4637773,5.39813143 52.8900707,5.6336657 52.152448,5.6336657 C51.4148252,5.6336657 50.8411187,5.39813143 50.3493702,4.92706289 C49.8576217,4.45599435 49.6117474,3.90641438 49.6117474,3.19981157 C49.6117474,2.49320876 49.8576217,1.9436288 50.3493702,1.47256026 C50.8411187,1.00149172 51.4148252,0.765957447 52.152448,0.765957447 C52.8900707,0.765957447 53.4637773,1.00149172 53.9555258,1.47256026 C54.4472743,1.9436288 54.6931485,2.49320876 54.6931485,3.19981157 C54.6931485,3.90641438 54.4472743,4.45599435 53.9555258,4.92706289 Z M50.8411187,4.53450577 C51.168951,4.84855146 51.6606995,5.08408573 52.152448,5.08408573 C52.6441965,5.08408573 53.135945,4.92706289 53.4637773,4.53450577 C53.7916096,4.22046008 54.0374839,3.74939154 54.0374839,3.19981157 C54.0374839,2.65023161 53.8735677,2.17916307 53.4637773,1.86511737 C53.135945,1.55107168 52.6441965,1.31553741 52.152448,1.31553741 C51.6606995,1.31553741 51.168951,1.47256026 50.8411187,1.86511737 C50.5132863,2.17916307 50.2674121,2.65023161 50.2674121,3.19981157 C50.2674121,3.74939154 50.4313282,4.22046008 50.8411187,4.53450577 Z M55.5946875,5.55515427 L55.5946875,0.84446887 L56.3323102,0.84446887 L58.7090946,4.53450577 L58.7090946,0.84446887 L59.3647593,0.84446887 L59.3647593,5.55515427 L58.7090946,5.55515427 L56.168394,1.70809453 L56.168394,5.55515427 L55.5946875,5.55515427 Z" id="Shape" stroke="#FFFFFF" stroke-width="0.2"></path>
                                    <path d="M49.4478313,12.4641595 C47.4808373,12.4641595 45.9236337,13.8773652 45.9236337,15.8401507 C45.9236337,17.7244249 47.4808373,19.2161419 49.4478313,19.2161419 C51.4148252,19.2161419 52.9720288,17.8029363 52.9720288,15.8401507 C52.9720288,13.7988537 51.4148252,12.4641595 49.4478313,12.4641595 Z M49.4478313,17.8029363 C48.3823762,17.8029363 47.4808373,16.9393107 47.4808373,15.7616393 C47.4808373,14.583968 48.3823762,13.7203423 49.4478313,13.7203423 C50.5132863,13.7203423 51.4148252,14.5054565 51.4148252,15.7616393 C51.4148252,16.9393107 50.5132863,17.8029363 49.4478313,17.8029363 Z M41.8257296,12.4641595 C39.8587356,12.4641595 38.301532,13.8773652 38.301532,15.8401507 C38.301532,17.7244249 39.8587356,19.2161419 41.8257296,19.2161419 C43.7927236,19.2161419 45.3499271,17.8029363 45.3499271,15.8401507 C45.3499271,13.7988537 43.7927236,12.4641595 41.8257296,12.4641595 Z M41.8257296,17.8029363 C40.7602745,17.8029363 39.8587356,16.9393107 39.8587356,15.7616393 C39.8587356,14.583968 40.7602745,13.7203423 41.8257296,13.7203423 C42.8911846,13.7203423 43.7927236,14.5054565 43.7927236,15.7616393 C43.7927236,16.9393107 42.8911846,17.8029363 41.8257296,17.8029363 Z M32.7283824,13.484808 L32.7283824,14.8980137 L36.2525799,14.8980137 C36.1706219,15.6831279 35.8427895,16.3112193 35.4329991,16.7037764 C34.9412506,17.1748449 34.1216698,17.7244249 32.7283824,17.7244249 C30.5155142,17.7244249 28.8763525,16.075685 28.8763525,13.9558766 C28.8763525,11.8360681 30.5974722,10.1873283 32.7283824,10.1873283 C33.8757955,10.1873283 34.7773345,10.6583968 35.4329991,11.2079768 L36.4984542,10.1873283 C35.5969153,9.40221402 34.4495021,8.77412263 32.8103405,8.77412263 C29.8598495,8.77412263 27.3191489,11.1294653 27.3191489,13.9558766 C27.3191489,16.7822878 29.8598495,19.1376305 32.8103405,19.1376305 C34.4495021,19.1376305 35.5969153,18.666562 36.5804123,17.6459135 C37.5639093,16.7037764 37.8917416,15.3690822 37.8917416,14.3484337 C37.8917416,14.034388 37.8917416,13.7203423 37.8097835,13.484808 L32.7283824,13.484808 Z M69.9373519,14.583968 C69.6095196,13.7988537 68.7899388,12.4641595 66.9868609,12.4641595 C65.1837831,12.4641595 63.7085376,13.7988537 63.7085376,15.8401507 C63.7085376,17.7244249 65.1837831,19.2161419 67.1507771,19.2161419 C68.7079807,19.2161419 69.6914777,18.2740049 70.01931,17.7244249 L68.8718968,16.9393107 C68.4621064,17.4888906 67.9703579,17.8814478 67.1507771,17.8814478 C66.3311963,17.8814478 65.8394478,17.5674021 65.4296574,16.8607992 L70.1012681,14.9765251 L69.9373519,14.583968 Z M65.1837831,15.6831279 C65.1837831,14.4269451 66.2492382,13.7203423 66.9868609,13.7203423 C67.5605675,13.7203423 68.1342741,14.034388 68.2981903,14.4269451 L65.1837831,15.6831279 Z M61.3317532,18.9020963 L62.8889568,18.9020963 L62.8889568,9.08816833 L61.3317532,9.08816833 L61.3317532,18.9020963 Z M58.8730108,13.1707623 C58.4632203,12.7782052 57.8075557,12.3856481 56.9879749,12.3856481 C55.2668551,12.3856481 53.6276935,13.8773652 53.6276935,15.7616393 C53.6276935,17.6459135 55.184897,19.0591191 56.9879749,19.0591191 C57.8075557,19.0591191 58.4632203,18.666562 58.7910527,18.2740049 L58.8730108,18.2740049 L58.8730108,18.7450734 C58.8730108,20.0012562 58.135388,20.707859 56.9879749,20.707859 C56.086436,20.707859 55.4307713,20.0797676 55.2668551,19.5301876 L53.9555258,20.0797676 C54.3653162,20.9433933 55.3488132,22.0425532 57.0699329,22.0425532 C58.8730108,22.0425532 60.3482562,21.0219047 60.3482562,18.5880506 L60.3482562,12.6211824 L58.8730108,12.6211824 L58.8730108,13.1707623 Z M57.0699329,17.8029363 C56.0044779,17.8029363 55.102939,16.9393107 55.102939,15.7616393 C55.102939,14.583968 56.0044779,13.7203423 57.0699329,13.7203423 C58.135388,13.7203423 58.9549688,14.583968 58.9549688,15.7616393 C58.9549688,16.9393107 58.135388,17.8029363 57.0699329,17.8029363 Z M77.0677051,9.08816833 L73.3795914,9.08816833 L73.3795914,18.9020963 L74.936795,18.9020963 L74.936795,15.2120594 L77.0677051,15.2120594 C78.7888248,15.2120594 80.4279865,14.034388 80.4279865,12.1501138 C80.4279865,10.2658397 78.7888248,9.08816833 77.0677051,9.08816833 Z M77.1496632,13.7988537 L74.936795,13.7988537 L74.936795,10.4228625 L77.1496632,10.4228625 C78.2970764,10.4228625 78.952741,11.3649996 78.952741,12.0716024 C78.8707829,12.9352281 78.2151183,13.7988537 77.1496632,13.7988537 Z M86.5748427,12.3856481 C85.4274295,12.3856481 84.2800164,12.8567167 83.870226,13.8773652 L85.2635134,14.4269451 C85.5913457,13.8773652 86.0830942,13.7203423 86.6568008,13.7203423 C87.4763816,13.7203423 88.2140044,14.1914109 88.2959624,14.9765251 L88.2959624,15.0550365 C88.0500882,14.8980137 87.3944235,14.6624794 86.7387589,14.6624794 C85.2635134,14.6624794 83.7882679,15.4475936 83.7882679,16.8607992 C83.7882679,18.1954934 85.0176391,19.0591191 86.3289685,19.0591191 C87.3944235,19.0591191 87.886172,18.5880506 88.2959624,18.116982 L88.3779205,18.116982 L88.3779205,18.9020963 L89.853166,18.9020963 L89.853166,15.1335479 C89.6892498,13.4062966 88.2959624,12.3856481 86.5748427,12.3856481 Z M86.4109265,17.8029363 C85.919178,17.8029363 85.1815553,17.5674021 85.1815553,16.9393107 C85.1815553,16.1541964 86.0830942,15.9186622 86.820717,15.9186622 C87.4763816,15.9186622 87.8042139,16.075685 88.2140044,16.2327079 C88.0500882,17.1748449 87.2305074,17.8029363 86.4109265,17.8029363 Z M95.0165252,12.6211824 L93.2954055,16.8607992 L93.2134474,16.8607992 L91.4103696,12.6211824 L89.7712079,12.6211824 L92.4758247,18.5880506 L90.9186211,21.8855303 L92.4758247,21.8855303 L96.6556869,12.6211824 L95.0165252,12.6211824 Z M81.2475673,18.9020963 L82.8047709,18.9020963 L82.8047709,9.08816833 L81.2475673,9.08816833 L81.2475673,18.9020963 Z" id="Shape"></path>
                                    <g id="Google-Play-Icon">
                                        <path d="M14.9796049,6.54431268 L3.37422285,0.412433833 C2.7711327,0.0938031613 2.1171937,0.0775193123 1.55119536,0.281174838 L11.4384693,10.0390673 L14.9796049,6.54431268 Z" id="Shape"></path>
                                        <path d="M19.3074613,8.83101192 L15.9645404,7.06475137 L12.1946284,10.7852886 L15.9645404,14.5058689 L19.3074178,12.7395653 C20.8887826,11.9040621 20.8887826,9.66651516 19.3074613,8.83101192 Z" id="Shape"></path>
                                        <path d="M0.646015956,0.880282994 C0.291423505,1.26490837 0.0679148936,1.77838668 0.0679148936,2.36671054 L0.0679148936,19.2038667 C0.0679148936,19.7921906 0.291423505,20.3057119 0.645972421,20.6903372 L10.6823537,10.7852886 L0.646015956,0.880282994 Z" id="Shape"></path>
                                        <path d="M1.55119536,21.2894454 C2.11715016,21.4930579 2.7711327,21.47686 3.37422285,21.1581864 L14.9796049,15.0263075 L11.4385128,11.5315529 L1.55119536,21.2894454 Z" id="Shape"></path>
                                    </g>
                                </g>
                            </g>
                        </g>
                    </g>
                </g>
            </g>
        </g>
    </g>
</svg>